<svg width="50" height="50" viewBox="0 0 50 50" fill="none" xmlns="http://www.w3.org/2000/svg">
<mask id="mask0_1_24" style="mask-type:alpha" maskUnits="userSpaceOnUse" x="0" y="0" width="50" height="50">
<circle cx="25" cy="25" r="25" fill="#D9D9D9"/>
</mask>
<g mask="url(#mask0_1_24)">
<path d="M0 25C0 11.1929 11.1929 -1.52588e-05 25 -1.52588e-05V-1.52588e-05C38.8071 -1.52588e-05 50 11.1929 50 25V25C50 38.8071 38.8071 50 25 50V50C11.1929 50 0 38.8071 0 25V25Z" fill="#252525"/>
<path d="M46.5003 -0.0781403L46.4131 0.106235L46.3258 0.29061L46.2368 0.474985L46.1485 0.65936L46.0469 0.873139L45.9711 1.02811L45.8816 1.21248L45.7929 1.39686L45.75 1.48657L45.7031 1.58123L45.6125 1.76561L45.5226 1.94998L45.4327 2.13436L45.341 2.31873L45.2499 2.50311L45.1562 2.69444L45.0668 2.87186L44.9746 3.05623L44.8832 3.24061L44.8594 3.28898L44.7899 3.42499L44.6965 3.60936L44.6039 3.79374L44.5625 3.87687L44.5101 3.97811L44.4155 4.16249L44.3217 4.34686L44.2656 4.45798L44.2272 4.53124L44.1313 4.71561L44.0363 4.89999L43.9687 5.03218L43.941 5.08436L43.8438 5.26874L43.7475 5.45311L43.6513 5.63749L43.5528 5.82186L43.4552 6.00624L43.3578 6.19061L43.258 6.37499L43.159 6.55936L43.0604 6.74374L42.9591 6.92811L42.8588 7.11249L42.7586 7.29686L42.6558 7.48124L42.5542 7.66561L42.4844 7.79354L42.4521 7.84999L42.3479 8.03436L42.2448 8.21874L42.1875 8.32239L42.1407 8.40311L42.035 8.58749L41.9304 8.77186L41.8906 8.84279L41.8239 8.95624L41.7166 9.14061L41.5938 9.3544L41.5011 9.50936L41.3922 9.69374L41.2839 9.87811L41.172 10.0625L41.0615 10.2469L41 10.3506L40.9496 10.4312L40.8359 10.6156L40.7031 10.8341L40.6077 10.9844L40.4922 11.1687L40.4062 11.3077L40.3765 11.3531L40.2575 11.5375L40.14 11.7219L40.1094 11.7707L40.0191 11.9062L39.898 12.0906L39.8125 12.2226L39.7765 12.275L39.6514 12.4594L39.5156 12.6628L39.3998 12.8281L39.2724 13.0125L39.2187 13.0913L39.1422 13.1969L39.0103 13.3812L38.9219 13.5069L38.8777 13.5656L38.741 13.75L38.6052 13.9344L38.4632 14.1187L38.3232 14.3031L38.1754 14.4875L38.0301 14.6719L37.8759 14.8562L37.7236 15.0406L37.5622 15.225L37.4008 15.4094L37.2314 15.5937L37.1406 15.6945L37.0581 15.7781L36.8438 16.0004L36.6908 16.1469L36.5469 16.2875L36.4972 16.3312L36.25 16.5545L36.0732 16.7L35.9531 16.8009L35.8411 16.8844L35.6562 17.0252L35.5912 17.0687L35.3594 17.2272L35.3155 17.2531L35.0625 17.4062L35.0016 17.4375L34.7656 17.5617L34.6279 17.6219L34.4688 17.6931L34.1493 17.8062L33.875 17.8838L33.5781 17.9434L33.2812 17.9798L33.0571 17.9906L32.9844 17.9942L32.8284 17.9906L32.6875 17.9874L32.3906 17.961L32.0937 17.9159L31.7969 17.8533L31.6197 17.8062L31.5 17.7752L31.2031 17.6834L31.0301 17.6219L30.9063 17.5789L30.6094 17.4636L30.5481 17.4375L30.3125 17.3395L30.1203 17.2531L30.0156 17.2071L29.7199 17.0687L29.4219 16.925L29.125 16.7777L28.8281 16.6277L28.5312 16.4761L28.2344 16.3239L27.9375 16.1725L27.8875 16.1469L27.6406 16.0226L27.3437 15.8747L27.1473 15.7781L27.0469 15.7297L26.75 15.5881L26.4531 15.4516L26.359 15.4094L26.1562 15.3201L25.9335 15.225L25.8594 15.1939L25.5625 15.0744L25.4746 15.0406L25.2656 14.9619L24.9687 14.8564L24.6719 14.7599L24.375 14.6713L24.0781 14.5927L23.7813 14.5235L23.6004 14.4875L23.4844 14.4648L23.1875 14.4175L22.8906 14.3817L22.5937 14.3582L22.2969 14.3478L22 14.3512L21.7031 14.3693L21.4062 14.4028L21.1094 14.4526L20.9539 14.4875L20.8125 14.5198L20.5156 14.6057L20.3283 14.6719L20.2188 14.7112L19.8848 14.8562L19.625 14.9876L19.5335 15.0406L19.3281 15.1618L19.2336 15.225L19.0312 15.3627L18.9702 15.4094L18.7332 15.5937L18.524 15.7781L18.4375 15.8559L18.33 15.9625L18.1406 16.1543L17.9845 16.3312L17.8267 16.5156L17.6837 16.7L17.544 16.8844L17.4179 17.0687L17.2947 17.2531L17.25 17.3215L17.18 17.4375L17.0712 17.6219L16.9531 17.8275L16.8681 17.9906L16.7744 18.175L16.6831 18.3594L16.6562 18.4151L16.5985 18.5437L16.518 18.7281L16.4397 18.9125L16.3594 19.1076L16.2945 19.2812L16.2276 19.4656L16.1629 19.65L16.1002 19.8344L16.0625 19.9492L16.0411 20.0187L15.9863 20.2031L15.9335 20.3875L15.8826 20.5719L15.8337 20.7562L15.7868 20.9406L15.7656 21.0273L15.7432 21.125L15.7028 21.3094L15.6642 21.4937L15.6275 21.6781L15.5926 21.8625L15.5595 22.0469L15.5283 22.2312L15.4988 22.4156L15.4687 22.618L15.4469 22.7844L15.4244 22.9687L15.4036 23.1531L15.3846 23.3375L15.3672 23.5219L15.3516 23.7062L15.3378 23.8906L15.3256 24.075L15.3152 24.2594L15.3065 24.4437L15.2995 24.6281L15.2942 24.8125L15.2907 24.9969L15.2889 25.1812L15.2888 25.3656L15.2905 25.55L15.2938 25.7344L15.2989 25.9187L15.3057 26.1031L15.3143 26.2875L15.3245 26.4719L15.3365 26.6562L15.3503 26.8406L15.3657 27.025L15.3829 27.2094L15.4017 27.3937L15.4224 27.5781L15.4447 27.7625L15.4687 27.9468L15.4962 28.1312L15.5254 28.3156L15.5565 28.5L15.5894 28.6844L15.6241 28.8687L15.6607 29.0531L15.6991 29.2375L15.7394 29.4219L15.7656 29.537L15.8292 29.7906L15.878 29.975L15.9286 30.1594L15.9813 30.3437L16.0359 30.5281L16.0625 30.615L16.0944 30.7125L16.1569 30.8969L16.2215 31.0812L16.2881 31.2656L16.3568 31.45L16.4325 31.6344L16.5106 31.8187L16.5909 32.0031L16.6562 32.1492L16.7657 32.3719L16.8592 32.5562L16.9531 32.7369L17.0611 32.925L17.1696 33.1094L17.25 33.2427L17.4062 33.4781L17.532 33.6625L17.6704 33.8469L17.8131 34.0312L18.1318 34.4L18.3128 34.5844L18.4375 34.7084L18.5046 34.7687L18.7134 34.9531L19.0312 35.2014L19.2079 35.3219L19.3281 35.4023L19.5039 35.5062L19.625 35.5766L19.8503 35.6906L19.9219 35.7262L20.2188 35.8531L20.2797 35.875L20.5156 35.9584L20.8125 36.0445L20.8775 36.0594L21.1094 36.1115L21.4062 36.1613L21.7031 36.1949L22 36.2131L22.2969 36.2165L22.5937 36.2061L22.8906 36.1825L23.4844 36.0993L23.6882 36.0594L23.7813 36.0408L24.0781 35.9715L24.375 35.8928L24.4356 35.875L24.6719 35.8043L24.9687 35.7076L25.0174 35.6906L25.2656 35.6023L25.5201 35.5062L25.8594 35.3702L25.9745 35.3219L26.1562 35.2441L26.3979 35.1375L26.4531 35.1127L26.75 34.9759L26.7986 34.9531L27.0469 34.8345L27.1829 34.7687L27.3437 34.6895L27.5561 34.5844L27.6406 34.5417L27.9215 34.4L28.2344 34.2401L28.2831 34.2156L28.5312 34.088L28.6439 34.0312L28.8281 33.9364L29.007 33.8469L29.125 33.7865L29.3761 33.6625L29.4219 33.6393L29.7188 33.4958L30.0156 33.357L30.1593 33.2937L30.3125 33.2247L30.5892 33.1094L30.9063 32.9852L31.0794 32.925L31.2031 32.8809L31.5 32.7889L31.6856 32.7406L31.7969 32.711L32.0937 32.6482L32.3906 32.603L32.6875 32.5765L32.9844 32.5699L33.2812 32.5842L33.5781 32.6206L33.875 32.6804L34.0873 32.7406L34.1719 32.764L34.4688 32.8711L34.7656 33.0024L34.9683 33.1094L35.0625 33.1579L35.2866 33.2937L35.3594 33.3369L35.5656 33.4781L35.6562 33.5388L35.8182 33.6625L35.9531 33.7633L36.0523 33.8469L36.25 34.0098L36.4778 34.2156L36.5469 34.2766L36.8438 34.5639L37.0412 34.7687L37.1406 34.8697L37.2157 34.9531L37.3847 35.1375L37.4375 35.194L37.7083 35.5062L37.8615 35.6906L38.0155 35.875L38.1617 36.0594L38.3092 36.2437L38.45 36.4281L38.5917 36.6125L38.8647 36.9812L38.9219 37.0572L38.998 37.1656L39.1297 37.35L39.2187 37.4729L39.2605 37.5344L39.3877 37.7187L39.5156 37.9014L39.6398 38.0875L39.7646 38.2719L39.8125 38.3415L40.0076 38.6406L40.1094 38.7936L40.2464 39.0094L40.3653 39.1937L40.4062 39.2564L40.5968 39.5625L40.7031 39.7301L40.8253 39.9312L40.9389 40.1156L41 40.2136L41.1616 40.4844L41.2734 40.6687L41.382 40.8531L41.4908 41.0375L41.5938 41.2099L41.7065 41.4062L41.8137 41.5906L41.8906 41.7214L42.0251 41.9594L42.1307 42.1437L42.1875 42.2418L42.2352 42.3281L42.3382 42.5125L42.4423 42.6969L42.4844 42.7706L42.6462 43.0656L42.7489 43.25L42.7813 43.3076L42.8494 43.4344L42.9496 43.6187L43.0508 43.8031L43.0781 43.8524L43.1498 43.9875L43.2486 44.1719L43.3484 44.3562L43.375 44.4049L43.5436 44.725L43.642 44.9094L43.6719 44.9648L43.8347 45.2781L43.9318 45.4625L43.9687 45.532L44.0274 45.6469L44.1223 45.8312L44.2181 46.0156L44.2656 46.1062L44.4066 46.3844L44.5012 46.5687L44.5625 46.6873L44.5952 46.7531L44.6878 46.9375L44.7811 47.1219L44.8594 47.2752L44.966 47.4906L45.0581 47.675L45.151 47.8594L45.2414 48.0437L45.3324 48.2281L45.4241 48.4125L45.4531 48.4705L45.5142 48.5969L45.604 48.7812L45.6946 48.9656L45.75 49.0776L45.8733 49.3344L45.9627 49.5187L46.0469 49.6911L46.1402 49.8875L46.2285 50.0719L46.3174 50.2562L46.3438 50.3104L46.4921 50.625L46.5799 50.8094L46.6406 50.9358L46.7537 51.1781L46.8404 51.3625L46.9278 51.5469" stroke="#FBFBFB" stroke-width="6.5" stroke-miterlimit="10" stroke-linecap="round" stroke-linejoin="round"/>
</g>
</svg>
